<mxfile host="app.diagrams.net" modified="2023-06-29T09:50:23.113Z" agent="Mozilla/5.0 (Windows NT 10.0; Win64; x64) AppleWebKit/537.36 (KHTML, like Gecko) Chrome/114.0.0.0 Safari/537.36" etag="DNUpEkQJbOR1XlUT3dUN" version="21.5.1" type="github">
  <diagram name="Page-1" id="hAlJngUBa7kM_mFyclKJ">
    <mxGraphModel dx="3085" dy="1732" grid="1" gridSize="10" guides="1" tooltips="1" connect="1" arrows="1" fold="1" page="1" pageScale="1" pageWidth="1100" pageHeight="850" math="0" shadow="0">
      <root>
        <mxCell id="0" />
        <mxCell id="1" parent="0" />
        <mxCell id="o7_JFFVW9iKN1w1vzZS_-1" value="Student" style="whiteSpace=wrap;html=1;align=center;" parent="1" vertex="1">
          <mxGeometry x="-230" y="72.5" width="100" height="40" as="geometry" />
        </mxCell>
        <mxCell id="o7_JFFVW9iKN1w1vzZS_-2" value="Teacher" style="whiteSpace=wrap;html=1;align=center;" parent="1" vertex="1">
          <mxGeometry x="860" y="85" width="110" height="40" as="geometry" />
        </mxCell>
        <mxCell id="o7_JFFVW9iKN1w1vzZS_-4" value="sId&lt;br&gt;" style="ellipse;whiteSpace=wrap;html=1;align=center;fontStyle=4;" parent="1" vertex="1">
          <mxGeometry x="-10" y="-35" width="90" height="40" as="geometry" />
        </mxCell>
        <mxCell id="o7_JFFVW9iKN1w1vzZS_-5" value="sName&lt;br&gt;" style="ellipse;whiteSpace=wrap;html=1;align=center;" parent="1" vertex="1">
          <mxGeometry x="85" y="-20" width="100" height="40" as="geometry" />
        </mxCell>
        <mxCell id="o7_JFFVW9iKN1w1vzZS_-6" value="tId&lt;br&gt;" style="ellipse;whiteSpace=wrap;html=1;align=center;fontStyle=4;" parent="1" vertex="1">
          <mxGeometry x="990" y="-10" width="100" height="40" as="geometry" />
        </mxCell>
        <mxCell id="gUFp7VbEcEFtTq1YbiBC-1" value="tName&lt;br&gt;" style="ellipse;whiteSpace=wrap;html=1;align=center;" parent="1" vertex="1">
          <mxGeometry x="630" y="115" width="100" height="40" as="geometry" />
        </mxCell>
        <mxCell id="gUFp7VbEcEFtTq1YbiBC-4" value="Phone&lt;br&gt;" style="ellipse;shape=doubleEllipse;margin=3;whiteSpace=wrap;html=1;align=center;" parent="1" vertex="1">
          <mxGeometry x="-400" y="25" width="100" height="40" as="geometry" />
        </mxCell>
        <mxCell id="gUFp7VbEcEFtTq1YbiBC-5" value="tPhone&lt;br&gt;" style="ellipse;shape=doubleEllipse;margin=3;whiteSpace=wrap;html=1;align=center;" parent="1" vertex="1">
          <mxGeometry x="1020" y="160" width="80" height="40" as="geometry" />
        </mxCell>
        <mxCell id="gUFp7VbEcEFtTq1YbiBC-6" value="motherName&lt;br&gt;" style="ellipse;whiteSpace=wrap;html=1;align=center;" parent="1" vertex="1">
          <mxGeometry x="-430" y="200" width="100" height="40" as="geometry" />
        </mxCell>
        <mxCell id="gUFp7VbEcEFtTq1YbiBC-7" value="fatherName&lt;br&gt;" style="ellipse;whiteSpace=wrap;html=1;align=center;" parent="1" vertex="1">
          <mxGeometry x="-450" y="150" width="100" height="40" as="geometry" />
        </mxCell>
        <mxCell id="gUFp7VbEcEFtTq1YbiBC-8" value="DOB&lt;br&gt;" style="ellipse;whiteSpace=wrap;html=1;align=center;" parent="1" vertex="1">
          <mxGeometry x="-320" y="295" width="100" height="30" as="geometry" />
        </mxCell>
        <mxCell id="gUFp7VbEcEFtTq1YbiBC-9" value="gender&lt;br&gt;" style="ellipse;whiteSpace=wrap;html=1;align=center;" parent="1" vertex="1">
          <mxGeometry x="200" y="95" width="100" height="30" as="geometry" />
        </mxCell>
        <mxCell id="gUFp7VbEcEFtTq1YbiBC-10" value="photoName&lt;br&gt;" style="ellipse;whiteSpace=wrap;html=1;align=center;" parent="1" vertex="1">
          <mxGeometry x="160" y="55" width="100" height="30" as="geometry" />
        </mxCell>
        <mxCell id="gUFp7VbEcEFtTq1YbiBC-11" value="photo" style="ellipse;whiteSpace=wrap;html=1;align=center;" parent="1" vertex="1">
          <mxGeometry x="840" y="217.5" width="75" height="30" as="geometry" />
        </mxCell>
        <mxCell id="MCZeEbuH2kYDmaIEnr_8-6" value="" style="endArrow=none;html=1;rounded=0;entryX=0.316;entryY=0.985;entryDx=0;entryDy=0;entryPerimeter=0;exitX=0.75;exitY=0;exitDx=0;exitDy=0;" parent="1" source="o7_JFFVW9iKN1w1vzZS_-1" target="o7_JFFVW9iKN1w1vzZS_-5" edge="1">
          <mxGeometry width="50" height="50" relative="1" as="geometry">
            <mxPoint x="110" y="90" as="sourcePoint" />
            <mxPoint x="160" y="40" as="targetPoint" />
          </mxGeometry>
        </mxCell>
        <mxCell id="MCZeEbuH2kYDmaIEnr_8-7" value="" style="endArrow=none;html=1;rounded=0;entryX=0.5;entryY=1;entryDx=0;entryDy=0;exitX=0.605;exitY=0.035;exitDx=0;exitDy=0;exitPerimeter=0;" parent="1" source="o7_JFFVW9iKN1w1vzZS_-1" target="o7_JFFVW9iKN1w1vzZS_-4" edge="1">
          <mxGeometry width="50" height="50" relative="1" as="geometry">
            <mxPoint x="90" y="90" as="sourcePoint" />
            <mxPoint x="140" y="40" as="targetPoint" />
          </mxGeometry>
        </mxCell>
        <mxCell id="MCZeEbuH2kYDmaIEnr_8-8" value="" style="endArrow=none;html=1;rounded=0;exitX=0;exitY=0.5;exitDx=0;exitDy=0;entryX=1;entryY=0.25;entryDx=0;entryDy=0;" parent="1" source="gUFp7VbEcEFtTq1YbiBC-10" target="o7_JFFVW9iKN1w1vzZS_-1" edge="1">
          <mxGeometry width="50" height="50" relative="1" as="geometry">
            <mxPoint x="50" y="180" as="sourcePoint" />
            <mxPoint x="100" y="130" as="targetPoint" />
          </mxGeometry>
        </mxCell>
        <mxCell id="MCZeEbuH2kYDmaIEnr_8-9" value="" style="endArrow=none;html=1;rounded=0;entryX=1;entryY=0.5;entryDx=0;entryDy=0;exitX=0;exitY=0;exitDx=0;exitDy=0;" parent="1" source="gUFp7VbEcEFtTq1YbiBC-9" target="o7_JFFVW9iKN1w1vzZS_-1" edge="1">
          <mxGeometry width="50" height="50" relative="1" as="geometry">
            <mxPoint x="90" y="210" as="sourcePoint" />
            <mxPoint x="140" y="160" as="targetPoint" />
          </mxGeometry>
        </mxCell>
        <mxCell id="MCZeEbuH2kYDmaIEnr_8-12" value="" style="endArrow=none;html=1;rounded=0;entryX=0.34;entryY=1.015;entryDx=0;entryDy=0;entryPerimeter=0;exitX=0.412;exitY=0.043;exitDx=0;exitDy=0;exitPerimeter=0;" parent="1" source="gUFp7VbEcEFtTq1YbiBC-8" target="o7_JFFVW9iKN1w1vzZS_-1" edge="1">
          <mxGeometry width="50" height="50" relative="1" as="geometry">
            <mxPoint y="190" as="sourcePoint" />
            <mxPoint x="50" y="140" as="targetPoint" />
          </mxGeometry>
        </mxCell>
        <mxCell id="MCZeEbuH2kYDmaIEnr_8-13" value="" style="endArrow=none;html=1;rounded=0;exitX=0.92;exitY=0.265;exitDx=0;exitDy=0;exitPerimeter=0;entryX=0;entryY=0.75;entryDx=0;entryDy=0;" parent="1" source="gUFp7VbEcEFtTq1YbiBC-6" target="o7_JFFVW9iKN1w1vzZS_-1" edge="1">
          <mxGeometry width="50" height="50" relative="1" as="geometry">
            <mxPoint y="160" as="sourcePoint" />
            <mxPoint x="50" y="110" as="targetPoint" />
          </mxGeometry>
        </mxCell>
        <mxCell id="MCZeEbuH2kYDmaIEnr_8-14" value="" style="endArrow=none;html=1;rounded=0;exitX=0.932;exitY=0.275;exitDx=0;exitDy=0;exitPerimeter=0;entryX=0;entryY=0.5;entryDx=0;entryDy=0;" parent="1" source="gUFp7VbEcEFtTq1YbiBC-7" target="o7_JFFVW9iKN1w1vzZS_-1" edge="1">
          <mxGeometry width="50" height="50" relative="1" as="geometry">
            <mxPoint x="-10" y="110" as="sourcePoint" />
            <mxPoint x="50" y="100" as="targetPoint" />
          </mxGeometry>
        </mxCell>
        <mxCell id="MCZeEbuH2kYDmaIEnr_8-15" value="" style="endArrow=none;html=1;rounded=0;entryX=0;entryY=0.25;entryDx=0;entryDy=0;exitX=1;exitY=0.5;exitDx=0;exitDy=0;entryPerimeter=0;" parent="1" target="o7_JFFVW9iKN1w1vzZS_-1" edge="1" source="l1WpKVphc8fHuQYczQ_G-2">
          <mxGeometry width="50" height="50" relative="1" as="geometry">
            <mxPoint x="-210" y="105" as="sourcePoint" />
            <mxPoint x="40" as="targetPoint" />
          </mxGeometry>
        </mxCell>
        <mxCell id="MCZeEbuH2kYDmaIEnr_8-16" value="" style="endArrow=none;html=1;rounded=0;exitX=0;exitY=0;exitDx=0;exitDy=0;entryX=1;entryY=0.5;entryDx=0;entryDy=0;" parent="1" source="o7_JFFVW9iKN1w1vzZS_-1" target="gUFp7VbEcEFtTq1YbiBC-4" edge="1">
          <mxGeometry width="50" height="50" relative="1" as="geometry">
            <mxPoint x="-50" y="70" as="sourcePoint" />
            <mxPoint y="20" as="targetPoint" />
          </mxGeometry>
        </mxCell>
        <mxCell id="MCZeEbuH2kYDmaIEnr_8-18" value="DOB&lt;br&gt;" style="ellipse;whiteSpace=wrap;html=1;align=center;" parent="1" vertex="1">
          <mxGeometry x="1050" y="112.5" width="80" height="30" as="geometry" />
        </mxCell>
        <mxCell id="MCZeEbuH2kYDmaIEnr_8-19" value="gender&lt;br&gt;" style="ellipse;whiteSpace=wrap;html=1;align=center;" parent="1" vertex="1">
          <mxGeometry x="900" y="247.5" width="100" height="30" as="geometry" />
        </mxCell>
        <mxCell id="MCZeEbuH2kYDmaIEnr_8-20" value="Coordinator" style="whiteSpace=wrap;html=1;align=center;" parent="1" vertex="1">
          <mxGeometry x="330" y="-200" width="80" height="40" as="geometry" />
        </mxCell>
        <mxCell id="MCZeEbuH2kYDmaIEnr_8-21" value="" style="endArrow=none;html=1;rounded=0;startArrow=none;" parent="1" source="MCZeEbuH2kYDmaIEnr_8-23" edge="1">
          <mxGeometry width="50" height="50" relative="1" as="geometry">
            <mxPoint x="90" y="-180" as="sourcePoint" />
            <mxPoint x="330" y="-180" as="targetPoint" />
          </mxGeometry>
        </mxCell>
        <mxCell id="MCZeEbuH2kYDmaIEnr_8-24" value="" style="endArrow=none;html=1;rounded=0;entryX=0;entryY=0.5;entryDx=0;entryDy=0;exitX=0.5;exitY=0;exitDx=0;exitDy=0;" parent="1" source="o7_JFFVW9iKN1w1vzZS_-1" target="MCZeEbuH2kYDmaIEnr_8-23" edge="1">
          <mxGeometry width="50" height="50" relative="1" as="geometry">
            <mxPoint x="70" y="-100" as="sourcePoint" />
            <mxPoint x="90" y="-180" as="targetPoint" />
          </mxGeometry>
        </mxCell>
        <mxCell id="MCZeEbuH2kYDmaIEnr_8-25" value="M" style="text;html=1;align=center;verticalAlign=middle;resizable=0;points=[];autosize=1;strokeColor=none;fillColor=none;" parent="1" vertex="1">
          <mxGeometry x="295" y="-180" width="30" height="30" as="geometry" />
        </mxCell>
        <mxCell id="MCZeEbuH2kYDmaIEnr_8-26" value="M" style="text;html=1;align=center;verticalAlign=middle;resizable=0;points=[];autosize=1;strokeColor=none;fillColor=none;" parent="1" vertex="1">
          <mxGeometry x="-70" y="25" width="30" height="30" as="geometry" />
        </mxCell>
        <mxCell id="MCZeEbuH2kYDmaIEnr_8-23" value="manage" style="rhombus;whiteSpace=wrap;html=1;" parent="1" vertex="1">
          <mxGeometry x="-5" y="-215" width="80" height="70" as="geometry" />
        </mxCell>
        <mxCell id="MCZeEbuH2kYDmaIEnr_8-34" value="" style="endArrow=none;html=1;rounded=0;exitX=0.25;exitY=0;exitDx=0;exitDy=0;entryX=1;entryY=0.5;entryDx=0;entryDy=0;" parent="1" source="o7_JFFVW9iKN1w1vzZS_-2" target="MCZeEbuH2kYDmaIEnr_8-35" edge="1">
          <mxGeometry width="50" height="50" relative="1" as="geometry">
            <mxPoint x="790" y="100" as="sourcePoint" />
            <mxPoint x="670" y="-180" as="targetPoint" />
          </mxGeometry>
        </mxCell>
        <mxCell id="MCZeEbuH2kYDmaIEnr_8-36" value="" style="endArrow=none;html=1;rounded=0;exitX=1;exitY=0.5;exitDx=0;exitDy=0;" parent="1" source="MCZeEbuH2kYDmaIEnr_8-20" target="MCZeEbuH2kYDmaIEnr_8-35" edge="1">
          <mxGeometry width="50" height="50" relative="1" as="geometry">
            <mxPoint x="410" y="-180" as="sourcePoint" />
            <mxPoint x="660" y="-180" as="targetPoint" />
          </mxGeometry>
        </mxCell>
        <mxCell id="MCZeEbuH2kYDmaIEnr_8-35" value="manage" style="rhombus;whiteSpace=wrap;html=1;" parent="1" vertex="1">
          <mxGeometry x="690" y="-220" width="80" height="70" as="geometry" />
        </mxCell>
        <mxCell id="MCZeEbuH2kYDmaIEnr_8-37" value="M" style="text;html=1;align=center;verticalAlign=middle;resizable=0;points=[];autosize=1;strokeColor=none;fillColor=none;" parent="1" vertex="1">
          <mxGeometry x="430" y="-175" width="30" height="30" as="geometry" />
        </mxCell>
        <mxCell id="MCZeEbuH2kYDmaIEnr_8-38" value="M" style="text;html=1;align=center;verticalAlign=middle;resizable=0;points=[];autosize=1;strokeColor=none;fillColor=none;" parent="1" vertex="1">
          <mxGeometry x="805" y="82.5" width="30" height="30" as="geometry" />
        </mxCell>
        <mxCell id="MCZeEbuH2kYDmaIEnr_8-49" value="DOA&lt;br&gt;" style="ellipse;whiteSpace=wrap;html=1;" parent="1" vertex="1">
          <mxGeometry x="-280" y="-20" width="70" height="30" as="geometry" />
        </mxCell>
        <mxCell id="MCZeEbuH2kYDmaIEnr_8-51" value="DOA&lt;br&gt;" style="ellipse;whiteSpace=wrap;html=1;direction=south;" parent="1" vertex="1">
          <mxGeometry x="670" y="45" width="70" height="30" as="geometry" />
        </mxCell>
        <mxCell id="MCZeEbuH2kYDmaIEnr_8-52" value="salary&lt;br&gt;" style="ellipse;whiteSpace=wrap;html=1;" parent="1" vertex="1">
          <mxGeometry x="870" y="-35" width="90" height="30" as="geometry" />
        </mxCell>
        <mxCell id="MCZeEbuH2kYDmaIEnr_8-58" value="" style="endArrow=none;html=1;rounded=0;exitX=0.25;exitY=0;exitDx=0;exitDy=0;entryX=0.5;entryY=1;entryDx=0;entryDy=0;" parent="1" source="o7_JFFVW9iKN1w1vzZS_-1" target="MCZeEbuH2kYDmaIEnr_8-49" edge="1">
          <mxGeometry width="50" height="50" relative="1" as="geometry">
            <mxPoint y="100" as="sourcePoint" />
            <mxPoint x="50" y="50" as="targetPoint" />
          </mxGeometry>
        </mxCell>
        <mxCell id="MCZeEbuH2kYDmaIEnr_8-59" value="" style="endArrow=none;html=1;rounded=0;exitX=0;exitY=0.25;exitDx=0;exitDy=0;entryX=0.5;entryY=0;entryDx=0;entryDy=0;" parent="1" source="o7_JFFVW9iKN1w1vzZS_-2" target="MCZeEbuH2kYDmaIEnr_8-51" edge="1">
          <mxGeometry width="50" height="50" relative="1" as="geometry">
            <mxPoint x="740" y="102.5" as="sourcePoint" />
            <mxPoint x="800" y="57.5" as="targetPoint" />
          </mxGeometry>
        </mxCell>
        <mxCell id="MCZeEbuH2kYDmaIEnr_8-60" value="" style="endArrow=none;html=1;rounded=0;exitX=0;exitY=0.5;exitDx=0;exitDy=0;entryX=1;entryY=0.312;entryDx=0;entryDy=0;entryPerimeter=0;" parent="1" source="o7_JFFVW9iKN1w1vzZS_-2" target="gUFp7VbEcEFtTq1YbiBC-1" edge="1">
          <mxGeometry width="50" height="50" relative="1" as="geometry">
            <mxPoint x="670" y="142.5" as="sourcePoint" />
            <mxPoint x="720" y="92.5" as="targetPoint" />
          </mxGeometry>
        </mxCell>
        <mxCell id="MCZeEbuH2kYDmaIEnr_8-61" value="" style="endArrow=none;html=1;rounded=0;entryX=0.25;entryY=1;entryDx=0;entryDy=0;exitX=0.5;exitY=0;exitDx=0;exitDy=0;" parent="1" source="gUFp7VbEcEFtTq1YbiBC-11" target="o7_JFFVW9iKN1w1vzZS_-2" edge="1">
          <mxGeometry width="50" height="50" relative="1" as="geometry">
            <mxPoint x="780" y="187.5" as="sourcePoint" />
            <mxPoint x="830" y="137.5" as="targetPoint" />
          </mxGeometry>
        </mxCell>
        <mxCell id="MCZeEbuH2kYDmaIEnr_8-62" value="" style="endArrow=none;html=1;rounded=0;exitX=0.4;exitY=0;exitDx=0;exitDy=0;exitPerimeter=0;entryX=0.364;entryY=0.875;entryDx=0;entryDy=0;entryPerimeter=0;" parent="1" source="MCZeEbuH2kYDmaIEnr_8-19" edge="1" target="o7_JFFVW9iKN1w1vzZS_-2">
          <mxGeometry width="50" height="50" relative="1" as="geometry">
            <mxPoint x="790" y="197.5" as="sourcePoint" />
            <mxPoint x="844" y="147.5" as="targetPoint" />
          </mxGeometry>
        </mxCell>
        <mxCell id="MCZeEbuH2kYDmaIEnr_8-63" value="" style="endArrow=none;html=1;rounded=0;exitX=0.31;exitY=0.05;exitDx=0;exitDy=0;exitPerimeter=0;entryX=0.75;entryY=1;entryDx=0;entryDy=0;" parent="1" source="gUFp7VbEcEFtTq1YbiBC-5" target="o7_JFFVW9iKN1w1vzZS_-2" edge="1">
          <mxGeometry width="50" height="50" relative="1" as="geometry">
            <mxPoint x="820" y="197.5" as="sourcePoint" />
            <mxPoint x="870" y="147.5" as="targetPoint" />
          </mxGeometry>
        </mxCell>
        <mxCell id="MCZeEbuH2kYDmaIEnr_8-64" value="" style="endArrow=none;html=1;rounded=0;exitX=0;exitY=0.5;exitDx=0;exitDy=0;entryX=1;entryY=0.75;entryDx=0;entryDy=0;" parent="1" source="MCZeEbuH2kYDmaIEnr_8-18" target="o7_JFFVW9iKN1w1vzZS_-2" edge="1">
          <mxGeometry width="50" height="50" relative="1" as="geometry">
            <mxPoint x="840" y="182.5" as="sourcePoint" />
            <mxPoint x="890" y="132.5" as="targetPoint" />
          </mxGeometry>
        </mxCell>
        <mxCell id="MCZeEbuH2kYDmaIEnr_8-65" value="" style="endArrow=none;html=1;rounded=0;exitX=0.589;exitY=-0.045;exitDx=0;exitDy=0;exitPerimeter=0;entryX=0.396;entryY=1.027;entryDx=0;entryDy=0;entryPerimeter=0;" parent="1" source="o7_JFFVW9iKN1w1vzZS_-2" target="MCZeEbuH2kYDmaIEnr_8-52" edge="1">
          <mxGeometry width="50" height="50" relative="1" as="geometry">
            <mxPoint x="825" y="92.5" as="sourcePoint" />
            <mxPoint x="875" y="42.5" as="targetPoint" />
          </mxGeometry>
        </mxCell>
        <mxCell id="MCZeEbuH2kYDmaIEnr_8-66" value="" style="endArrow=none;html=1;rounded=0;entryX=0.04;entryY=0.76;entryDx=0;entryDy=0;exitX=0.75;exitY=0;exitDx=0;exitDy=0;entryPerimeter=0;" parent="1" source="o7_JFFVW9iKN1w1vzZS_-2" target="o7_JFFVW9iKN1w1vzZS_-6" edge="1">
          <mxGeometry width="50" height="50" relative="1" as="geometry">
            <mxPoint x="870" y="107.5" as="sourcePoint" />
            <mxPoint x="920" y="57.5" as="targetPoint" />
          </mxGeometry>
        </mxCell>
        <mxCell id="MCZeEbuH2kYDmaIEnr_8-68" value="" style="endArrow=none;html=1;rounded=0;entryX=0;entryY=0.5;entryDx=0;entryDy=0;exitX=1;exitY=0.25;exitDx=0;exitDy=0;" parent="1" source="o7_JFFVW9iKN1w1vzZS_-2" edge="1" target="l1WpKVphc8fHuQYczQ_G-1">
          <mxGeometry width="50" height="50" relative="1" as="geometry">
            <mxPoint x="890" y="127.5" as="sourcePoint" />
            <mxPoint x="940" y="115" as="targetPoint" />
          </mxGeometry>
        </mxCell>
        <mxCell id="Ei1K3c7gN9c_TIly_VJW-3" value="&lt;u&gt;cId&amp;nbsp;&lt;/u&gt;" style="ellipse;whiteSpace=wrap;html=1;" parent="1" vertex="1">
          <mxGeometry x="276" y="-260" width="90" height="30" as="geometry" />
        </mxCell>
        <mxCell id="1-d6Fu5MJaZz8OH5cvos-2" value="make" style="shape=rhombus;perimeter=rhombusPerimeter;whiteSpace=wrap;html=1;align=center;" parent="1" vertex="1">
          <mxGeometry x="-35" y="325" width="120" height="60" as="geometry" />
        </mxCell>
        <mxCell id="1-d6Fu5MJaZz8OH5cvos-4" value="" style="endArrow=none;html=1;rounded=0;entryX=0.5;entryY=0;entryDx=0;entryDy=0;exitX=0.5;exitY=1;exitDx=0;exitDy=0;" parent="1" source="o7_JFFVW9iKN1w1vzZS_-1" target="1-d6Fu5MJaZz8OH5cvos-2" edge="1">
          <mxGeometry relative="1" as="geometry">
            <mxPoint x="160" y="250" as="sourcePoint" />
            <mxPoint x="320" y="250" as="targetPoint" />
          </mxGeometry>
        </mxCell>
        <mxCell id="1-d6Fu5MJaZz8OH5cvos-5" value="" style="endArrow=none;html=1;rounded=0;exitX=0.5;exitY=1;exitDx=0;exitDy=0;entryX=0.5;entryY=0;entryDx=0;entryDy=0;" parent="1" source="1-d6Fu5MJaZz8OH5cvos-2" target="XWec7LVvSGvu0YzP4a_5-7" edge="1">
          <mxGeometry relative="1" as="geometry">
            <mxPoint x="280" y="450" as="sourcePoint" />
            <mxPoint x="250" y="580" as="targetPoint" />
          </mxGeometry>
        </mxCell>
        <mxCell id="1-d6Fu5MJaZz8OH5cvos-6" value="amount&lt;br&gt;" style="ellipse;whiteSpace=wrap;html=1;align=center;" parent="1" vertex="1">
          <mxGeometry x="-135" y="460" width="100" height="40" as="geometry" />
        </mxCell>
        <mxCell id="1-d6Fu5MJaZz8OH5cvos-7" value="invoiceId&lt;br&gt;" style="ellipse;whiteSpace=wrap;html=1;align=center;fontStyle=4;" parent="1" vertex="1">
          <mxGeometry x="210" y="460" width="100" height="40" as="geometry" />
        </mxCell>
        <mxCell id="1-d6Fu5MJaZz8OH5cvos-8" value="date&lt;br&gt;" style="ellipse;whiteSpace=wrap;html=1;align=center;" parent="1" vertex="1">
          <mxGeometry x="-90" y="550" width="100" height="40" as="geometry" />
        </mxCell>
        <mxCell id="1-d6Fu5MJaZz8OH5cvos-9" value="time&lt;br&gt;" style="ellipse;whiteSpace=wrap;html=1;align=center;" parent="1" vertex="1">
          <mxGeometry x="20" y="580" width="100" height="30" as="geometry" />
        </mxCell>
        <mxCell id="9f_DpSQsWtOs5JTPL-0A-1" value="cName" style="ellipse;whiteSpace=wrap;html=1;align=center;" parent="1" vertex="1">
          <mxGeometry x="450" y="-240" width="100" height="40" as="geometry" />
        </mxCell>
        <mxCell id="9f_DpSQsWtOs5JTPL-0A-2" value="cAddress&lt;br&gt;" style="ellipse;whiteSpace=wrap;html=1;align=center;" parent="1" vertex="1">
          <mxGeometry x="425" y="-140" width="100" height="40" as="geometry" />
        </mxCell>
        <mxCell id="9f_DpSQsWtOs5JTPL-0A-3" value="photo&lt;br&gt;" style="ellipse;whiteSpace=wrap;html=1;align=center;" parent="1" vertex="1">
          <mxGeometry x="185" y="-290" width="100" height="40" as="geometry" />
        </mxCell>
        <mxCell id="9f_DpSQsWtOs5JTPL-0A-4" value="gender&lt;br&gt;" style="ellipse;whiteSpace=wrap;html=1;align=center;" parent="1" vertex="1">
          <mxGeometry x="220" y="-140" width="100" height="30" as="geometry" />
        </mxCell>
        <mxCell id="9f_DpSQsWtOs5JTPL-0A-5" value="reason&lt;br&gt;" style="ellipse;whiteSpace=wrap;html=1;align=center;" parent="1" vertex="1">
          <mxGeometry x="130" y="575" width="100" height="40" as="geometry" />
        </mxCell>
        <mxCell id="9f_DpSQsWtOs5JTPL-0A-6" value="DOB&lt;br&gt;" style="ellipse;whiteSpace=wrap;html=1;align=center;" parent="1" vertex="1">
          <mxGeometry x="410" y="-280" width="100" height="30" as="geometry" />
        </mxCell>
        <mxCell id="9f_DpSQsWtOs5JTPL-0A-7" value="DOA&lt;br&gt;" style="ellipse;whiteSpace=wrap;html=1;" parent="1" vertex="1">
          <mxGeometry x="170" y="-230" width="70" height="30" as="geometry" />
        </mxCell>
        <mxCell id="XWec7LVvSGvu0YzP4a_5-1" value="sLevel" style="ellipse;whiteSpace=wrap;html=1;align=center;" parent="1" vertex="1">
          <mxGeometry x="-390" y="255" width="90" height="40" as="geometry" />
        </mxCell>
        <mxCell id="XWec7LVvSGvu0YzP4a_5-4" value="tLevel&lt;br&gt;" style="ellipse;whiteSpace=wrap;html=1;align=center;" parent="1" vertex="1">
          <mxGeometry x="730" y="207.5" width="90" height="40" as="geometry" />
        </mxCell>
        <mxCell id="XWec7LVvSGvu0YzP4a_5-5" value="" style="endArrow=none;html=1;rounded=0;exitX=0.616;exitY=-0.025;exitDx=0;exitDy=0;exitPerimeter=0;entryX=0.25;entryY=1;entryDx=0;entryDy=0;" parent="1" source="XWec7LVvSGvu0YzP4a_5-4" target="o7_JFFVW9iKN1w1vzZS_-2" edge="1">
          <mxGeometry width="50" height="50" relative="1" as="geometry">
            <mxPoint x="730" y="187.5" as="sourcePoint" />
            <mxPoint x="810" y="140" as="targetPoint" />
          </mxGeometry>
        </mxCell>
        <mxCell id="XWec7LVvSGvu0YzP4a_5-6" value="" style="endArrow=none;html=1;rounded=0;entryX=0.092;entryY=0.995;entryDx=0;entryDy=0;entryPerimeter=0;exitX=0.5;exitY=0;exitDx=0;exitDy=0;" parent="1" source="XWec7LVvSGvu0YzP4a_5-1" target="o7_JFFVW9iKN1w1vzZS_-1" edge="1">
          <mxGeometry width="50" height="50" relative="1" as="geometry">
            <mxPoint y="195" as="sourcePoint" />
            <mxPoint x="50" y="145" as="targetPoint" />
          </mxGeometry>
        </mxCell>
        <mxCell id="XWec7LVvSGvu0YzP4a_5-7" value="payment" style="rounded=0;whiteSpace=wrap;html=1;" parent="1" vertex="1">
          <mxGeometry x="20" y="460" width="120" height="40" as="geometry" />
        </mxCell>
        <mxCell id="XWec7LVvSGvu0YzP4a_5-8" value="" style="endArrow=none;html=1;rounded=0;entryX=1;entryY=0.5;entryDx=0;entryDy=0;exitX=0;exitY=0.5;exitDx=0;exitDy=0;" parent="1" source="1-d6Fu5MJaZz8OH5cvos-7" target="XWec7LVvSGvu0YzP4a_5-7" edge="1">
          <mxGeometry width="50" height="50" relative="1" as="geometry">
            <mxPoint x="25" y="540" as="sourcePoint" />
            <mxPoint x="75" y="490" as="targetPoint" />
          </mxGeometry>
        </mxCell>
        <mxCell id="XWec7LVvSGvu0YzP4a_5-9" value="" style="endArrow=none;html=1;rounded=0;entryX=0.884;entryY=1.123;entryDx=0;entryDy=0;entryPerimeter=0;exitX=0.5;exitY=0;exitDx=0;exitDy=0;" parent="1" target="XWec7LVvSGvu0YzP4a_5-7" edge="1" source="9f_DpSQsWtOs5JTPL-0A-5">
          <mxGeometry width="50" height="50" relative="1" as="geometry">
            <mxPoint x="135" y="640" as="sourcePoint" />
            <mxPoint x="220" y="600" as="targetPoint" />
          </mxGeometry>
        </mxCell>
        <mxCell id="XWec7LVvSGvu0YzP4a_5-10" value="" style="endArrow=none;html=1;rounded=0;entryX=0.5;entryY=1;entryDx=0;entryDy=0;exitX=0.584;exitY=0.015;exitDx=0;exitDy=0;exitPerimeter=0;" parent="1" source="1-d6Fu5MJaZz8OH5cvos-9" target="XWec7LVvSGvu0YzP4a_5-7" edge="1">
          <mxGeometry width="50" height="50" relative="1" as="geometry">
            <mxPoint x="35" y="650" as="sourcePoint" />
            <mxPoint x="85" y="600" as="targetPoint" />
          </mxGeometry>
        </mxCell>
        <mxCell id="XWec7LVvSGvu0YzP4a_5-11" value="" style="endArrow=none;html=1;rounded=0;entryX=0;entryY=0.75;entryDx=0;entryDy=0;exitX=0.988;exitY=0.335;exitDx=0;exitDy=0;exitPerimeter=0;" parent="1" source="1-d6Fu5MJaZz8OH5cvos-6" target="XWec7LVvSGvu0YzP4a_5-7" edge="1">
          <mxGeometry width="50" height="50" relative="1" as="geometry">
            <mxPoint x="-25" y="570" as="sourcePoint" />
            <mxPoint x="25" y="520" as="targetPoint" />
          </mxGeometry>
        </mxCell>
        <mxCell id="XWec7LVvSGvu0YzP4a_5-12" value="" style="endArrow=none;html=1;rounded=0;entryX=0.25;entryY=1;entryDx=0;entryDy=0;exitX=1;exitY=0;exitDx=0;exitDy=0;" parent="1" source="1-d6Fu5MJaZz8OH5cvos-8" target="XWec7LVvSGvu0YzP4a_5-7" edge="1">
          <mxGeometry width="50" height="50" relative="1" as="geometry">
            <mxPoint x="-45" y="610" as="sourcePoint" />
            <mxPoint x="5" y="560" as="targetPoint" />
          </mxGeometry>
        </mxCell>
        <mxCell id="eqshzNbWuF5Rem4cjN1Z-1" value="barcode" style="ellipse;whiteSpace=wrap;html=1;align=center;" parent="1" vertex="1">
          <mxGeometry x="150" y="160" width="100" height="40" as="geometry" />
        </mxCell>
        <mxCell id="eqshzNbWuF5Rem4cjN1Z-2" value="has" style="shape=rhombus;perimeter=rhombusPerimeter;whiteSpace=wrap;html=1;align=center;" parent="1" vertex="1">
          <mxGeometry x="340" y="280" width="120" height="60" as="geometry" />
        </mxCell>
        <mxCell id="eqshzNbWuF5Rem4cjN1Z-3" value="login" style="whiteSpace=wrap;html=1;align=center;" parent="1" vertex="1">
          <mxGeometry x="366" y="510" width="100" height="40" as="geometry" />
        </mxCell>
        <mxCell id="eqshzNbWuF5Rem4cjN1Z-4" value="" style="endArrow=none;html=1;rounded=0;exitX=0.5;exitY=1;exitDx=0;exitDy=0;entryX=0.5;entryY=0;entryDx=0;entryDy=0;" parent="1" source="eqshzNbWuF5Rem4cjN1Z-2" target="eqshzNbWuF5Rem4cjN1Z-3" edge="1">
          <mxGeometry relative="1" as="geometry">
            <mxPoint x="477.5" y="299.8" as="sourcePoint" />
            <mxPoint x="827.5" y="509.8" as="targetPoint" />
          </mxGeometry>
        </mxCell>
        <mxCell id="eqshzNbWuF5Rem4cjN1Z-5" value="" style="endArrow=none;html=1;rounded=0;exitX=0.75;exitY=1;exitDx=0;exitDy=0;entryX=0;entryY=0.5;entryDx=0;entryDy=0;" parent="1" source="o7_JFFVW9iKN1w1vzZS_-1" target="eqshzNbWuF5Rem4cjN1Z-2" edge="1">
          <mxGeometry relative="1" as="geometry">
            <mxPoint x="62.5" y="44.8" as="sourcePoint" />
            <mxPoint x="637.5" y="179.8" as="targetPoint" />
          </mxGeometry>
        </mxCell>
        <mxCell id="eqshzNbWuF5Rem4cjN1Z-6" value="" style="endArrow=none;html=1;rounded=0;entryX=0.5;entryY=0;entryDx=0;entryDy=0;exitX=0.5;exitY=1;exitDx=0;exitDy=0;" parent="1" source="MCZeEbuH2kYDmaIEnr_8-20" target="eqshzNbWuF5Rem4cjN1Z-2" edge="1">
          <mxGeometry relative="1" as="geometry">
            <mxPoint x="380" y="-150" as="sourcePoint" />
            <mxPoint x="637.5" y="179.8" as="targetPoint" />
          </mxGeometry>
        </mxCell>
        <mxCell id="eqshzNbWuF5Rem4cjN1Z-7" value="" style="endArrow=none;html=1;rounded=0;exitX=1;exitY=0.5;exitDx=0;exitDy=0;entryX=0;entryY=1;entryDx=0;entryDy=0;" parent="1" source="eqshzNbWuF5Rem4cjN1Z-2" target="o7_JFFVW9iKN1w1vzZS_-2" edge="1">
          <mxGeometry relative="1" as="geometry">
            <mxPoint x="477.5" y="159.8" as="sourcePoint" />
            <mxPoint x="827.5" y="79.8" as="targetPoint" />
          </mxGeometry>
        </mxCell>
        <mxCell id="eqshzNbWuF5Rem4cjN1Z-8" value="username&lt;br&gt;" style="ellipse;whiteSpace=wrap;html=1;align=center;" parent="1" vertex="1">
          <mxGeometry x="466" y="420" width="100" height="40" as="geometry" />
        </mxCell>
        <mxCell id="eqshzNbWuF5Rem4cjN1Z-9" value="password&lt;br&gt;" style="ellipse;whiteSpace=wrap;html=1;align=center;" parent="1" vertex="1">
          <mxGeometry x="520" y="500" width="100" height="40" as="geometry" />
        </mxCell>
        <mxCell id="eCXgP1olibC65oAgb00l-2" value="" style="endArrow=none;html=1;rounded=0;exitX=0.89;exitY=0;exitDx=0;exitDy=0;exitPerimeter=0;entryX=0;entryY=1;entryDx=0;entryDy=0;" parent="1" source="eqshzNbWuF5Rem4cjN1Z-3" target="eqshzNbWuF5Rem4cjN1Z-8" edge="1">
          <mxGeometry relative="1" as="geometry">
            <mxPoint x="750" y="409" as="sourcePoint" />
            <mxPoint x="910" y="409" as="targetPoint" />
          </mxGeometry>
        </mxCell>
        <mxCell id="eCXgP1olibC65oAgb00l-3" value="" style="endArrow=none;html=1;rounded=0;exitX=1;exitY=0.5;exitDx=0;exitDy=0;entryX=0;entryY=0;entryDx=0;entryDy=0;" parent="1" source="eqshzNbWuF5Rem4cjN1Z-3" target="eqshzNbWuF5Rem4cjN1Z-9" edge="1">
          <mxGeometry relative="1" as="geometry">
            <mxPoint x="899" y="460" as="sourcePoint" />
            <mxPoint x="925" y="424" as="targetPoint" />
          </mxGeometry>
        </mxCell>
        <mxCell id="eCXgP1olibC65oAgb00l-4" value="upload/download" style="shape=rhombus;perimeter=rhombusPerimeter;whiteSpace=wrap;html=1;align=center;" parent="1" vertex="1">
          <mxGeometry x="346" y="830" width="120" height="60" as="geometry" />
        </mxCell>
        <mxCell id="eCXgP1olibC65oAgb00l-6" value="" style="endArrow=none;html=1;rounded=0;entryX=0.5;entryY=1;entryDx=0;entryDy=0;" parent="1" target="eCXgP1olibC65oAgb00l-14" edge="1">
          <mxGeometry relative="1" as="geometry">
            <mxPoint x="406" y="890" as="sourcePoint" />
            <mxPoint x="380" y="-690" as="targetPoint" />
          </mxGeometry>
        </mxCell>
        <mxCell id="eCXgP1olibC65oAgb00l-7" value="" style="endArrow=none;html=1;rounded=0;entryX=0.5;entryY=0;entryDx=0;entryDy=0;exitX=1;exitY=0.5;exitDx=0;exitDy=0;" parent="1" source="eCXgP1olibC65oAgb00l-4" target="o7_JFFVW9iKN1w1vzZS_-2" edge="1">
          <mxGeometry relative="1" as="geometry">
            <mxPoint x="460" y="-680.5" as="sourcePoint" />
            <mxPoint x="840" y="100" as="targetPoint" />
            <Array as="points">
              <mxPoint x="915" y="850" />
            </Array>
          </mxGeometry>
        </mxCell>
        <mxCell id="eCXgP1olibC65oAgb00l-9" value="" style="endArrow=none;html=1;rounded=0;exitX=0.388;exitY=1.179;exitDx=0;exitDy=0;entryX=0;entryY=0.5;entryDx=0;entryDy=0;exitPerimeter=0;" parent="1" source="o7_JFFVW9iKN1w1vzZS_-1" edge="1" target="eCXgP1olibC65oAgb00l-4">
          <mxGeometry relative="1" as="geometry">
            <mxPoint x="-50" y="70" as="sourcePoint" />
            <mxPoint x="310" y="-620.5" as="targetPoint" />
            <Array as="points">
              <mxPoint x="-191" y="860" />
            </Array>
          </mxGeometry>
        </mxCell>
        <mxCell id="eCXgP1olibC65oAgb00l-10" value="id&lt;br&gt;" style="ellipse;whiteSpace=wrap;html=1;align=center;fontStyle=4;" parent="1" vertex="1">
          <mxGeometry x="200" y="960" width="100" height="40" as="geometry" />
        </mxCell>
        <mxCell id="eCXgP1olibC65oAgb00l-11" value="file_name" style="ellipse;whiteSpace=wrap;html=1;align=center;" parent="1" vertex="1">
          <mxGeometry x="530" y="960" width="100" height="40" as="geometry" />
        </mxCell>
        <mxCell id="eCXgP1olibC65oAgb00l-14" value="file" style="whiteSpace=wrap;html=1;align=center;" parent="1" vertex="1">
          <mxGeometry x="366" y="990" width="100" height="40" as="geometry" />
        </mxCell>
        <mxCell id="SmM6LJLl4KTtc26-mkWV-9" value="" style="endArrow=none;html=1;rounded=0;entryX=1;entryY=0.5;entryDx=0;entryDy=0;exitX=0;exitY=0.5;exitDx=0;exitDy=0;" parent="1" source="eCXgP1olibC65oAgb00l-11" target="eCXgP1olibC65oAgb00l-14" edge="1">
          <mxGeometry width="50" height="50" relative="1" as="geometry">
            <mxPoint x="610" y="-820" as="sourcePoint" />
            <mxPoint x="550" y="-560" as="targetPoint" />
          </mxGeometry>
        </mxCell>
        <mxCell id="SmM6LJLl4KTtc26-mkWV-10" value="" style="endArrow=none;html=1;rounded=0;exitX=0;exitY=0.5;exitDx=0;exitDy=0;entryX=1;entryY=0.5;entryDx=0;entryDy=0;" parent="1" source="eCXgP1olibC65oAgb00l-14" target="eCXgP1olibC65oAgb00l-10" edge="1">
          <mxGeometry width="50" height="50" relative="1" as="geometry">
            <mxPoint x="225" y="-740" as="sourcePoint" />
            <mxPoint x="270" y="-710" as="targetPoint" />
          </mxGeometry>
        </mxCell>
        <mxCell id="SmM6LJLl4KTtc26-mkWV-18" value="" style="endArrow=none;html=1;rounded=0;entryX=0;entryY=1;entryDx=0;entryDy=0;exitX=0.75;exitY=0;exitDx=0;exitDy=0;" parent="1" source="MCZeEbuH2kYDmaIEnr_8-20" target="9f_DpSQsWtOs5JTPL-0A-6" edge="1">
          <mxGeometry width="50" height="50" relative="1" as="geometry">
            <mxPoint x="390" y="-200" as="sourcePoint" />
            <mxPoint x="440" y="-250" as="targetPoint" />
          </mxGeometry>
        </mxCell>
        <mxCell id="SmM6LJLl4KTtc26-mkWV-19" value="" style="endArrow=none;html=1;rounded=0;exitX=1;exitY=0.5;exitDx=0;exitDy=0;entryX=0.25;entryY=1;entryDx=0;entryDy=0;" parent="1" source="9f_DpSQsWtOs5JTPL-0A-4" target="MCZeEbuH2kYDmaIEnr_8-20" edge="1">
          <mxGeometry width="50" height="50" relative="1" as="geometry">
            <mxPoint x="290" y="-110" as="sourcePoint" />
            <mxPoint x="340" y="-160" as="targetPoint" />
          </mxGeometry>
        </mxCell>
        <mxCell id="SmM6LJLl4KTtc26-mkWV-20" value="" style="endArrow=none;html=1;rounded=0;exitX=0;exitY=0.25;exitDx=0;exitDy=0;entryX=0.5;entryY=1;entryDx=0;entryDy=0;" parent="1" source="MCZeEbuH2kYDmaIEnr_8-20" target="9f_DpSQsWtOs5JTPL-0A-3" edge="1">
          <mxGeometry width="50" height="50" relative="1" as="geometry">
            <mxPoint x="210" y="-210" as="sourcePoint" />
            <mxPoint x="260" y="-260" as="targetPoint" />
            <Array as="points">
              <mxPoint x="280" y="-210" />
            </Array>
          </mxGeometry>
        </mxCell>
        <mxCell id="SmM6LJLl4KTtc26-mkWV-21" value="" style="endArrow=none;html=1;rounded=0;exitX=0;exitY=0.5;exitDx=0;exitDy=0;entryX=1;entryY=1;entryDx=0;entryDy=0;" parent="1" source="MCZeEbuH2kYDmaIEnr_8-20" target="9f_DpSQsWtOs5JTPL-0A-7" edge="1">
          <mxGeometry width="50" height="50" relative="1" as="geometry">
            <mxPoint x="190" y="-160" as="sourcePoint" />
            <mxPoint x="240" y="-210" as="targetPoint" />
          </mxGeometry>
        </mxCell>
        <mxCell id="SmM6LJLl4KTtc26-mkWV-22" value="" style="endArrow=none;html=1;rounded=0;exitX=0.25;exitY=0;exitDx=0;exitDy=0;entryX=0.5;entryY=1;entryDx=0;entryDy=0;" parent="1" source="MCZeEbuH2kYDmaIEnr_8-20" target="Ei1K3c7gN9c_TIly_VJW-3" edge="1">
          <mxGeometry width="50" height="50" relative="1" as="geometry">
            <mxPoint x="280" y="-170" as="sourcePoint" />
            <mxPoint x="330" y="-220" as="targetPoint" />
          </mxGeometry>
        </mxCell>
        <mxCell id="SmM6LJLl4KTtc26-mkWV-24" value="" style="endArrow=none;html=1;rounded=0;entryX=0;entryY=0.5;entryDx=0;entryDy=0;exitX=1;exitY=0.25;exitDx=0;exitDy=0;" parent="1" source="MCZeEbuH2kYDmaIEnr_8-20" target="9f_DpSQsWtOs5JTPL-0A-1" edge="1">
          <mxGeometry width="50" height="50" relative="1" as="geometry">
            <mxPoint x="380" y="-170" as="sourcePoint" />
            <mxPoint x="430" y="-220" as="targetPoint" />
          </mxGeometry>
        </mxCell>
        <mxCell id="SmM6LJLl4KTtc26-mkWV-26" value="" style="endArrow=none;html=1;rounded=0;exitX=0;exitY=0;exitDx=0;exitDy=0;entryX=0.75;entryY=1;entryDx=0;entryDy=0;" parent="1" source="9f_DpSQsWtOs5JTPL-0A-2" target="MCZeEbuH2kYDmaIEnr_8-20" edge="1">
          <mxGeometry width="50" height="50" relative="1" as="geometry">
            <mxPoint x="350" y="-110" as="sourcePoint" />
            <mxPoint x="400" y="-160" as="targetPoint" />
          </mxGeometry>
        </mxCell>
        <mxCell id="SmM6LJLl4KTtc26-mkWV-29" value="" style="endArrow=none;html=1;rounded=0;exitX=1;exitY=0.75;exitDx=0;exitDy=0;entryX=0;entryY=0.5;entryDx=0;entryDy=0;" parent="1" source="o7_JFFVW9iKN1w1vzZS_-1" target="eqshzNbWuF5Rem4cjN1Z-1" edge="1">
          <mxGeometry width="50" height="50" relative="1" as="geometry">
            <mxPoint x="150" y="170" as="sourcePoint" />
            <mxPoint x="200" y="120" as="targetPoint" />
          </mxGeometry>
        </mxCell>
        <mxCell id="SmM6LJLl4KTtc26-mkWV-41" value="barcode" style="ellipse;whiteSpace=wrap;html=1;align=center;" parent="1" vertex="1">
          <mxGeometry x="970" y="207.5" width="90" height="40" as="geometry" />
        </mxCell>
        <mxCell id="SmM6LJLl4KTtc26-mkWV-42" value="" style="endArrow=none;html=1;rounded=0;entryX=0.5;entryY=1;entryDx=0;entryDy=0;exitX=0.5;exitY=0;exitDx=0;exitDy=0;" parent="1" source="SmM6LJLl4KTtc26-mkWV-41" target="o7_JFFVW9iKN1w1vzZS_-2" edge="1">
          <mxGeometry width="50" height="50" relative="1" as="geometry">
            <mxPoint x="820" y="240" as="sourcePoint" />
            <mxPoint x="870" y="190" as="targetPoint" />
          </mxGeometry>
        </mxCell>
        <mxCell id="RlhBNxm7TTPI9DAKTnNB-3" value="&lt;blockquote style=&quot;margin: 0 0 0 40px; border: none; padding: 0px;&quot;&gt;&lt;div style=&quot;&quot;&gt;&lt;div style=&quot;font-size: 19px;&quot;&gt;&lt;ul&gt;&lt;li&gt;&lt;b&gt;&lt;span style=&quot;background-color: initial;&quot;&gt;sId&amp;nbsp; &amp;nbsp; &amp;nbsp; &amp;nbsp; &amp;nbsp; &amp;nbsp; &amp;nbsp; &amp;nbsp;=&amp;nbsp; s&lt;/span&gt;&lt;span style=&quot;background-color: initial;&quot;&gt;tudent Id&lt;/span&gt;&lt;/b&gt;&lt;/li&gt;&lt;li&gt;&lt;span style=&quot;background-color: initial;&quot;&gt;&lt;b&gt;tId&amp;nbsp; &amp;nbsp; &amp;nbsp; &amp;nbsp; &amp;nbsp; &amp;nbsp; &amp;nbsp; &amp;nbsp; =&amp;nbsp; teacher Id&amp;nbsp;&lt;/b&gt;&lt;/span&gt;&lt;/li&gt;&lt;li&gt;&lt;span style=&quot;background-color: initial;&quot;&gt;&lt;b&gt;cId&amp;nbsp; &amp;nbsp; &amp;nbsp; &amp;nbsp; &amp;nbsp; &amp;nbsp; &amp;nbsp; &amp;nbsp;=&amp;nbsp; coordinator Id&amp;nbsp;&lt;/b&gt;&lt;/span&gt;&lt;/li&gt;&lt;li&gt;&lt;span style=&quot;background-color: initial;&quot;&gt;&lt;b&gt;aId&amp;nbsp; &amp;nbsp; &amp;nbsp; &amp;nbsp; &amp;nbsp; &amp;nbsp; &amp;nbsp; &amp;nbsp;=&amp;nbsp; a&lt;b style=&quot;border-color: var(--border-color);&quot;&gt;dmin Id&lt;/b&gt;&amp;nbsp;&amp;nbsp; &amp;nbsp; &amp;nbsp; &amp;nbsp; &amp;nbsp;&amp;nbsp;&lt;/b&gt;&lt;/span&gt;&lt;/li&gt;&lt;li&gt;&lt;span style=&quot;background-color: initial;&quot;&gt;&lt;b&gt;DOA&amp;nbsp; &amp;nbsp; &amp;nbsp; &amp;nbsp; &amp;nbsp; &amp;nbsp; =&amp;nbsp; Date Of Admission&lt;/b&gt;&lt;/span&gt;&lt;/li&gt;&lt;li&gt;&lt;span style=&quot;background-color: initial;&quot;&gt;&lt;b&gt;sAddress&amp;nbsp; &amp;nbsp; =&amp;nbsp; student Address&lt;/b&gt;&lt;/span&gt;&lt;/li&gt;&lt;li&gt;&lt;span style=&quot;background-color: initial;&quot;&gt;&lt;b&gt;tAddress&amp;nbsp; &amp;nbsp; &amp;nbsp;= teachers Address&lt;/b&gt;&lt;/span&gt;&lt;/li&gt;&lt;li&gt;&lt;span style=&quot;background-color: initial;&quot;&gt;&lt;b&gt;DOB&amp;nbsp; &amp;nbsp; &amp;nbsp; &amp;nbsp; &amp;nbsp; &amp;nbsp; =&amp;nbsp; Date Of Birth&lt;/b&gt;&lt;/span&gt;&lt;/li&gt;&lt;li&gt;&lt;span style=&quot;background-color: initial;&quot;&gt;&lt;b&gt;sLevel&amp;nbsp; &amp;nbsp; &amp;nbsp; &amp;nbsp; &amp;nbsp;=&amp;nbsp; student level&lt;/b&gt;&lt;/span&gt;&lt;/li&gt;&lt;li&gt;&lt;span style=&quot;background-color: initial;&quot;&gt;&lt;b&gt;tLevel&amp;nbsp; &amp;nbsp; &amp;nbsp; &amp;nbsp; &amp;nbsp; =&amp;nbsp; teachers level&lt;/b&gt;&lt;/span&gt;&lt;/li&gt;&lt;li&gt;&lt;span style=&quot;background-color: initial;&quot;&gt;&lt;b&gt;rid&amp;nbsp; &amp;nbsp; &amp;nbsp; &amp;nbsp; &amp;nbsp; &amp;nbsp; &amp;nbsp; &amp;nbsp; =&amp;nbsp; report id&lt;/b&gt;&lt;/span&gt;&lt;/li&gt;&lt;/ul&gt;&lt;/div&gt;&lt;/div&gt;&lt;/blockquote&gt;" style="text;html=1;strokeColor=none;fillColor=none;align=left;verticalAlign=middle;whiteSpace=wrap;rounded=0;" parent="1" vertex="1">
          <mxGeometry x="1130" y="1000" width="510" height="380" as="geometry" />
        </mxCell>
        <mxCell id="l1WpKVphc8fHuQYczQ_G-1" value="tAddress" style="ellipse;whiteSpace=wrap;html=1;align=center;" parent="1" vertex="1">
          <mxGeometry x="1020" y="50" width="100" height="40" as="geometry" />
        </mxCell>
        <mxCell id="l1WpKVphc8fHuQYczQ_G-2" value="sAddress" style="ellipse;whiteSpace=wrap;html=1;align=center;" parent="1" vertex="1">
          <mxGeometry x="-430" y="85" width="100" height="40" as="geometry" />
        </mxCell>
        <mxCell id="5LKcySGYA36cZ9LOxvE8-3" value="file_path" style="ellipse;whiteSpace=wrap;html=1;align=center;" vertex="1" parent="1">
          <mxGeometry x="370" y="1090" width="100" height="40" as="geometry" />
        </mxCell>
        <mxCell id="5LKcySGYA36cZ9LOxvE8-4" value="" style="endArrow=none;html=1;rounded=0;entryX=0.5;entryY=0;entryDx=0;entryDy=0;exitX=0.398;exitY=1.019;exitDx=0;exitDy=0;exitPerimeter=0;" edge="1" parent="1" source="5LKcySGYA36cZ9LOxvE8-3" target="eCXgP1olibC65oAgb00l-14">
          <mxGeometry width="50" height="50" relative="1" as="geometry">
            <mxPoint x="470" y="-870" as="sourcePoint" />
            <mxPoint x="420" y="-870" as="targetPoint" />
          </mxGeometry>
        </mxCell>
        <mxCell id="5LKcySGYA36cZ9LOxvE8-11" value="Admin" style="rounded=0;whiteSpace=wrap;html=1;" vertex="1" parent="1">
          <mxGeometry x="320" y="-540" width="120" height="40" as="geometry" />
        </mxCell>
        <mxCell id="5LKcySGYA36cZ9LOxvE8-12" value="" style="ellipse;whiteSpace=wrap;html=1;" vertex="1" parent="1">
          <mxGeometry x="190" y="-570" width="110" height="30" as="geometry" />
        </mxCell>
        <mxCell id="5LKcySGYA36cZ9LOxvE8-13" value="" style="ellipse;whiteSpace=wrap;html=1;" vertex="1" parent="1">
          <mxGeometry x="180" y="-520" width="110" height="30" as="geometry" />
        </mxCell>
        <mxCell id="5LKcySGYA36cZ9LOxvE8-14" value="" style="ellipse;whiteSpace=wrap;html=1;" vertex="1" parent="1">
          <mxGeometry x="310" y="-600" width="110" height="30" as="geometry" />
        </mxCell>
        <mxCell id="5LKcySGYA36cZ9LOxvE8-15" value="" style="ellipse;whiteSpace=wrap;html=1;" vertex="1" parent="1">
          <mxGeometry x="445" y="-590" width="110" height="30" as="geometry" />
        </mxCell>
      </root>
    </mxGraphModel>
  </diagram>
</mxfile>
